<mxfile host="app.diagrams.net" agent="Mozilla/5.0 (Windows NT 10.0; Win64; x64) AppleWebKit/537.36 (KHTML, like Gecko) Chrome/135.0.0.0 Safari/537.36" version="26.2.12">
  <diagram id="C5RBs43oDa-KdzZeNtuy" name="Page-1">
    <mxGraphModel dx="1099" dy="597" grid="1" gridSize="10" guides="1" tooltips="1" connect="1" arrows="1" fold="1" page="1" pageScale="1" pageWidth="827" pageHeight="1169" math="0" shadow="0">
      <root>
        <mxCell id="WIyWlLk6GJQsqaUBKTNV-0" />
        <mxCell id="WIyWlLk6GJQsqaUBKTNV-1" parent="WIyWlLk6GJQsqaUBKTNV-0" />
        <mxCell id="RYbKcA7-CBiTDcBswhLT-4" value="" style="edgeStyle=orthogonalEdgeStyle;rounded=0;orthogonalLoop=1;jettySize=auto;html=1;strokeColor=light-dark(#000000,#B4CEFF);fontColor=light-dark(#000000,#FFFFFF);labelBackgroundColor=none;strokeWidth=2;" edge="1" parent="WIyWlLk6GJQsqaUBKTNV-1" source="RYbKcA7-CBiTDcBswhLT-0" target="RYbKcA7-CBiTDcBswhLT-3">
          <mxGeometry relative="1" as="geometry" />
        </mxCell>
        <mxCell id="RYbKcA7-CBiTDcBswhLT-0" value="USER" style="rounded=1;html=1;fillColor=light-dark(#000000,#39322B);strokeColor=light-dark(#000000,#B4CEFF);gradientColor=none;fontColor=light-dark(#000000,#FFFFFF);whiteSpace=wrap;textShadow=0;labelBackgroundColor=none;strokeWidth=2;" vertex="1" parent="WIyWlLk6GJQsqaUBKTNV-1">
          <mxGeometry x="40" y="250" width="120" height="60" as="geometry" />
        </mxCell>
        <mxCell id="RYbKcA7-CBiTDcBswhLT-10" value="" style="edgeStyle=orthogonalEdgeStyle;rounded=0;orthogonalLoop=1;jettySize=auto;html=1;strokeColor=light-dark(#000000,#B4CEFF);fontColor=light-dark(#000000,#FFFFFF);labelBackgroundColor=none;strokeWidth=2;" edge="1" parent="WIyWlLk6GJQsqaUBKTNV-1" source="RYbKcA7-CBiTDcBswhLT-3" target="RYbKcA7-CBiTDcBswhLT-9">
          <mxGeometry relative="1" as="geometry" />
        </mxCell>
        <mxCell id="RYbKcA7-CBiTDcBswhLT-14" value="" style="edgeStyle=orthogonalEdgeStyle;rounded=0;orthogonalLoop=1;jettySize=auto;html=1;strokeColor=light-dark(#000000,#B4CEFF);fontColor=light-dark(#000000,#FFFFFF);labelBackgroundColor=none;strokeWidth=2;" edge="1" parent="WIyWlLk6GJQsqaUBKTNV-1" source="RYbKcA7-CBiTDcBswhLT-3" target="RYbKcA7-CBiTDcBswhLT-13">
          <mxGeometry relative="1" as="geometry" />
        </mxCell>
        <mxCell id="RYbKcA7-CBiTDcBswhLT-3" value="Web App" style="rhombus;whiteSpace=wrap;html=1;rounded=1;strokeColor=light-dark(#000000,#B4CEFF);fontColor=light-dark(#000000,#FFFFFF);labelBackgroundColor=none;strokeWidth=2;fillColor=light-dark(#000000,#39322B);" vertex="1" parent="WIyWlLk6GJQsqaUBKTNV-1">
          <mxGeometry x="240" y="230" width="100" height="100" as="geometry" />
        </mxCell>
        <mxCell id="RYbKcA7-CBiTDcBswhLT-12" value="" style="edgeStyle=orthogonalEdgeStyle;rounded=0;orthogonalLoop=1;jettySize=auto;html=1;strokeColor=light-dark(#000000,#B4CEFF);fontColor=light-dark(#000000,#FFFFFF);labelBackgroundColor=none;strokeWidth=2;" edge="1" parent="WIyWlLk6GJQsqaUBKTNV-1" source="RYbKcA7-CBiTDcBswhLT-9" target="RYbKcA7-CBiTDcBswhLT-11">
          <mxGeometry relative="1" as="geometry" />
        </mxCell>
        <mxCell id="RYbKcA7-CBiTDcBswhLT-16" value="" style="edgeStyle=orthogonalEdgeStyle;rounded=0;orthogonalLoop=1;jettySize=auto;html=1;strokeColor=light-dark(#000000,#B4CEFF);fontColor=light-dark(#000000,#FFFFFF);labelBackgroundColor=none;strokeWidth=2;" edge="1" parent="WIyWlLk6GJQsqaUBKTNV-1" source="RYbKcA7-CBiTDcBswhLT-9" target="RYbKcA7-CBiTDcBswhLT-15">
          <mxGeometry relative="1" as="geometry" />
        </mxCell>
        <mxCell id="RYbKcA7-CBiTDcBswhLT-9" value="Blockchain Platform (Polygon)" style="rhombus;whiteSpace=wrap;html=1;rounded=1;strokeColor=light-dark(#000000,#B4CEFF);fontColor=light-dark(#000000,#FFFFFF);labelBackgroundColor=none;strokeWidth=2;fillColor=light-dark(#000000,#39322B);" vertex="1" parent="WIyWlLk6GJQsqaUBKTNV-1">
          <mxGeometry x="440" y="230" width="100" height="100" as="geometry" />
        </mxCell>
        <mxCell id="RYbKcA7-CBiTDcBswhLT-11" value="NGO Verification" style="whiteSpace=wrap;html=1;rounded=1;strokeColor=light-dark(#000000,#B4CEFF);fontColor=light-dark(#000000,#FFFFFF);labelBackgroundColor=none;strokeWidth=2;fillColor=light-dark(#000000,#39322B);" vertex="1" parent="WIyWlLk6GJQsqaUBKTNV-1">
          <mxGeometry x="630" y="250" width="120" height="60" as="geometry" />
        </mxCell>
        <mxCell id="RYbKcA7-CBiTDcBswhLT-13" value="Environmental Impact Tracking" style="whiteSpace=wrap;html=1;rounded=1;strokeColor=light-dark(#000000,#B4CEFF);fontColor=light-dark(#000000,#FFFFFF);labelBackgroundColor=none;strokeWidth=2;fillColor=light-dark(#000000,#39322B);" vertex="1" parent="WIyWlLk6GJQsqaUBKTNV-1">
          <mxGeometry x="225" y="400" width="130" height="60" as="geometry" />
        </mxCell>
        <mxCell id="RYbKcA7-CBiTDcBswhLT-15" value="NFT Minting" style="whiteSpace=wrap;html=1;rounded=1;strokeColor=light-dark(#000000,#B4CEFF);fontColor=light-dark(#000000,#FFFFFF);labelBackgroundColor=none;strokeWidth=2;fillColor=light-dark(#000000,#39322B);" vertex="1" parent="WIyWlLk6GJQsqaUBKTNV-1">
          <mxGeometry x="430" y="400" width="120" height="60" as="geometry" />
        </mxCell>
      </root>
    </mxGraphModel>
  </diagram>
</mxfile>
